<svg xmlns="http://www.w3.org/2000/svg" viewBox="0 0 128.01 124"><defs><style>.cls-1{fill:#fff;}.cls-2{fill:#21a457;}</style></defs><title>btn_side_03</title><g id="レイヤー_2" data-name="レイヤー 2"><g id="レイヤー_6" data-name="レイヤー 6"><rect class="cls-1" width="128" height="124"/><rect class="cls-2" x="2.17" y="2.19" width="125.83" height="119.71"/><path class="cls-1" d="M41.32,38.62a14.11,14.11,0,0,0,4.91,1.2,6,6,0,0,0-.88,1.12c-.15.23-.29.34-.41.34a2.29,2.29,0,0,1-.43,0,13,13,0,0,1-2.75-.72,12,12,0,0,1-2.18-1c-.07,0-.1-.09-.1-.13s.07-.09.2-.14L41,38.56H35l1.53.67c.17.05.25.13.25.25s-.09.18-.27.22a3.14,3.14,0,0,0-.74.32,13.59,13.59,0,0,1-4.1,1.26l-.36,0c-.16,0-.31-.12-.45-.37a4.2,4.2,0,0,0-.81-1A14.89,14.89,0,0,0,34.1,39a3.77,3.77,0,0,0,.81-.45l-2.18,0c-.09,0-.15,0-.17,0a.39.39,0,0,1,0-.18l0-1.77V33.54l0-1.79a.29.29,0,0,1,0-.17.47.47,0,0,1,.16,0l2.35,0a1.3,1.3,0,0,1-.15-.29,3.27,3.27,0,0,0-.64-.82,8.91,8.91,0,0,0,3.23-1.08A3.55,3.55,0,0,0,39,27.6H37.45a7.66,7.66,0,0,1-1.15,1.13,1.29,1.29,0,0,1-.42.25q-.1,0-.42-.36a2.44,2.44,0,0,0-.79-.59A8,8,0,0,0,37,25.51a5.06,5.06,0,0,0,.34-.81c.56.09,1,.18,1.42.28.21.06.31.12.31.21a.31.31,0,0,1-.17.25,1.27,1.27,0,0,0-.36.48l-.2.35h5.34a1.07,1.07,0,0,0,.44-.07.56.56,0,0,1,.25-.07,1.72,1.72,0,0,1,.67.36q.6.39.6.63a.27.27,0,0,1-.15.23.82.82,0,0,0-.32.32A15.13,15.13,0,0,1,44.32,29c-.19.24-.33.36-.43.36a1.35,1.35,0,0,1-.48-.16,5.73,5.73,0,0,0-1-.36,7.88,7.88,0,0,0,1-1.19H40.76q1,2.63,5.69,3a3.61,3.61,0,0,0-.5,1.17,2.17,2.17,0,0,1-.16.42.22.22,0,0,1-.2.08,1.78,1.78,0,0,1-.36-.05,11.51,11.51,0,0,1-1.43-.36c0,.31,0,.86,0,1.64v3.07l0,1.77a.31.31,0,0,1,0,.18s-.07,0-.17,0l-2.41,0ZM34.81,28.35c0,.2.06.54.13,1a2.33,2.33,0,0,1,.07.43c0,.13-.14.27-.44.44a23.1,23.1,0,0,1-2.82,1.2,1.59,1.59,0,0,0-.48.26.43.43,0,0,1-.25.14.31.31,0,0,1-.26-.2,10.73,10.73,0,0,1-.62-1.53c.52-.11,1-.22,1.32-.33A17,17,0,0,0,34.81,28.35ZM32,25.2a13.17,13.17,0,0,1,2.48,1.41c.09.06.13.12.13.16a.35.35,0,0,1-.13.18l-.77.88c-.1.11-.17.17-.22.17a.33.33,0,0,1-.16-.08,10.53,10.53,0,0,0-2.44-1.51c-.1-.06-.14-.11-.14-.14s0-.12.12-.2l.76-.76c.09-.1.16-.15.22-.15A.41.41,0,0,1,32,25.2ZM42,32.87H34.29v.75H42Zm-7.73,2.57H42v-.75H34.29ZM42,37.29v-.78H34.29v.78Zm-.9-5.7H43a5.92,5.92,0,0,1-3-2.46,5.44,5.44,0,0,1-3.6,2.47Z"/><path class="cls-1" d="M51.15,24.77c.65,0,1.26.06,1.83.13.19,0,.29.08.29.18a1.19,1.19,0,0,1-.11.38A6.29,6.29,0,0,0,53,27.27v3.38h.14l1.95,0a.29.29,0,0,1,.17,0,.32.32,0,0,1,0,.17v1.27c0,.13-.07.19-.2.19l-1.83,0a17.64,17.64,0,0,0,2.42,3.12A5.19,5.19,0,0,0,55,36.54c-.1.22-.19.33-.25.33s-.16-.09-.28-.28A14.39,14.39,0,0,1,53,34l.12,7.06c0,.09,0,.15,0,.17a.32.32,0,0,1-.17,0H51.42c-.09,0-.15,0-.16,0s0-.07,0-.16,0-.41,0-1.08c0-2.08.08-3.92.09-5.52a17,17,0,0,1-2.18,4.09c-.15.2-.26.29-.32.29s-.15-.1-.21-.31a4,4,0,0,0-.65-1.3,15.58,15.58,0,0,0,2.9-5h-.33l-2,0c-.13,0-.2-.06-.2-.19V30.82c0-.1,0-.16,0-.18a.42.42,0,0,1,.16,0l2,0h.74V27.31A18.76,18.76,0,0,0,51.15,24.77ZM49.89,26.2a14.36,14.36,0,0,1,1,3,.44.44,0,0,1,0,.1c0,.09-.08.16-.25.23l-.77.29a.91.91,0,0,1-.22.06s-.09-.06-.11-.18a13.46,13.46,0,0,0-.91-3,.63.63,0,0,1,0-.14c0-.07.08-.13.23-.19l.76-.31.17,0S49.84,26.09,49.89,26.2Zm3.48,3.2a16.36,16.36,0,0,0,.82-2.72,6.35,6.35,0,0,0,.12-.77,13.46,13.46,0,0,1,1.36.5c.13.07.2.14.2.22a.17.17,0,0,1-.1.17.68.68,0,0,0-.22.41c-.19.64-.47,1.4-.83,2.28-.11.26-.2.38-.27.38a.85.85,0,0,1-.36-.17A5.74,5.74,0,0,0,53.37,29.4Zm4.61,6,2.75-.53V27.63a19.64,19.64,0,0,0-.15-2.73c.7,0,1.34.06,1.92.12.18,0,.27.09.27.2a1.65,1.65,0,0,1-.11.36,9.33,9.33,0,0,0-.11,2v6.9l1.19-.28a1.71,1.71,0,0,0,.3-.08l.13,0,.09,0s.09.07.11.19l.21,1.41a.44.44,0,0,1,0,.09q0,.09-.18.12l-.58.12-1.28.24v1.68l0,3.11a.31.31,0,0,1,0,.18s-.08,0-.17,0H60.89c-.09,0-.15,0-.17,0s0-.07,0-.16l0-3.09V36.61l-2.47.49-1.75.36-.41.08-.16,0-.11,0c-.07,0-.11-.05-.13-.16L55.48,36a.37.37,0,0,1,0-.13c0-.05.06-.09.17-.11l.35-.05C56.56,35.63,57.22,35.52,58,35.37Zm-.87-5.14a12.33,12.33,0,0,1,2.49,2.3.39.39,0,0,1,.09.17s0,.11-.15.21l-.88.88c-.1.09-.17.14-.21.14s-.09,0-.15-.1a15.06,15.06,0,0,0-2.38-2.45c-.08-.09-.12-.13-.12-.15s.05-.1.14-.19l.83-.79c.08-.09.14-.13.16-.13A.48.48,0,0,1,57.11,30.23Zm.48-4.16a12,12,0,0,1,2.54,2.29.19.19,0,0,1,.08.15s0,.11-.13.19l-.86.85a.56.56,0,0,1-.22.15s-.08,0-.12-.1a12.56,12.56,0,0,0-2.46-2.37c-.06,0-.09-.08-.09-.13s0-.12.13-.2l.79-.76c.11-.09.17-.14.2-.14A.23.23,0,0,1,57.59,26.07Z"/><path class="cls-1" d="M68.22,28h2.15l1.94,0c.09,0,.15,0,.16,0a.24.24,0,0,1,0,.15V29.4c0,.1,0,.16,0,.18a.24.24,0,0,1-.15,0l-1.94,0H68.22l-1.93,0c-.09,0-.14,0-.15-.05a.28.28,0,0,1,0-.16V28.11c0-.13.06-.19.18-.19ZM72,40.77A.36.36,0,0,1,72,41l-.16,0H70.57c-.1,0-.15,0-.17,0a.32.32,0,0,1,0-.17v-.48H68.5v.8a.31.31,0,0,1,0,.18.32.32,0,0,1-.17,0H67c-.1,0-.17,0-.19,0s0-.07,0-.16l0-2.69V37.25l0-1.69c0-.1,0-.16,0-.18s.08,0,.17,0l1.64,0h1.53l1.65,0a.31.31,0,0,1,.18,0,.49.49,0,0,1,0,.17l0,1.38v1.24ZM68.7,25.49h1.51l1.62,0a.4.4,0,0,1,.2,0,.51.51,0,0,1,0,.16v1.19c0,.1,0,.16,0,.17a.34.34,0,0,1-.18,0l-1.62,0H68.7l-1.63,0a.31.31,0,0,1-.18,0,.35.35,0,0,1,0-.17V25.65c0-.09,0-.15,0-.16a.29.29,0,0,1,.17,0Zm.07,5h1.37l1.52,0a.31.31,0,0,1,.18,0,.32.32,0,0,1,0,.17v1.17c0,.09,0,.15,0,.17a.49.49,0,0,1-.17,0l-1.52,0H68.77l-1.53,0a.29.29,0,0,1-.17,0,.3.3,0,0,1,0-.16V30.68c0-.1,0-.16,0-.18a.36.36,0,0,1,.15,0Zm0,2.44h1.37l1.52-.05a.29.29,0,0,1,.18,0,.29.29,0,0,1,0,.17v1.15c0,.1,0,.16,0,.17a.29.29,0,0,1-.17,0l-1.52,0H68.77l-1.53,0c-.09,0-.15,0-.17,0a.28.28,0,0,1,0-.16V33.11c0-.1,0-.16,0-.18s.07,0,.15,0Zm1.6,3.93H68.5v1.91h1.87Zm8.64-7H78.1v.84h1.84l2.39,0c.08,0,.14,0,.15,0a.36.36,0,0,1,0,.18v1c0,.11-.06.17-.18.17H72.68c-.13,0-.2-.06-.2-.17v-1c0-.11,0-.17,0-.19a.28.28,0,0,1,.16,0l2.41,0h1.26v-.84h-.62l-2.17,0q-.18,0-.18-.21v-.91c0-.13.06-.2.18-.2l2.17,0h.62V27.8h-.88l-2.27,0a.29.29,0,0,1-.17,0,.3.3,0,0,1,0-.16v-1a.29.29,0,0,1,0-.18.28.28,0,0,1,.16,0l2.27,0h.88q0-.94-.12-1.77.92,0,1.77.12c.2,0,.29.09.29.21s0,.15-.1.43a4.06,4.06,0,0,0-.09,1h1.4l2.29,0a.27.27,0,0,1,.17,0,.49.49,0,0,1,0,.17v1a.29.29,0,0,1,0,.17l-.16,0-2.29,0H78.1v.82H79l2.17,0a.31.31,0,0,1,.18,0s0,.08,0,.17v.91c0,.1,0,.16,0,.18a.29.29,0,0,1-.17,0ZM77.62,39.5c.39,0,.8,0,1.22,0a.78.78,0,0,0,.59-.17.57.57,0,0,0,.11-.39v-.68H75.17v.63l0,2.14c0,.09,0,.15,0,.17a.29.29,0,0,1-.17,0H73.63c-.09,0-.15,0-.16,0s0-.07,0-.16l0-2.1V35l0-2c0-.1,0-.16,0-.18a.4.4,0,0,1,.15,0l2.17,0h3.09l2.14,0a.4.4,0,0,1,.2,0,.54.54,0,0,1,0,.17l0,2.1v1.59l0,2.58a1.86,1.86,0,0,1-.45,1.46,3.3,3.3,0,0,1-2,.41h-.19a.57.57,0,0,1-.38-.09,1,1,0,0,1-.12-.33A4.1,4.1,0,0,0,77.62,39.5Zm1.92-5.3H75.17V35h4.37Zm-4.37,2.92h4.37v-.9H75.17Z"/><path class="cls-1" d="M86.81,29.82l-2.3,0a.32.32,0,0,1-.15,0,.29.29,0,0,1,0-.17V28.25c0-.11,0-.17,0-.19s.06,0,.15,0l2.3,0H91.2V27a14.39,14.39,0,0,0-.12-2.18c.75,0,1.4.07,2,.13.17,0,.25.08.25.2a1.43,1.43,0,0,1-.08.46,5.36,5.36,0,0,0-.1,1.36v1.13h4.32l2.31,0c.09,0,.15,0,.16,0a.29.29,0,0,1,0,.17v1.41a.29.29,0,0,1,0,.17.51.51,0,0,1-.16,0l-2.31,0H93.28a12.72,12.72,0,0,0,1.49,3.27,19.16,19.16,0,0,0,2-2,3.78,3.78,0,0,0,.57-.86,10.88,10.88,0,0,1,1.41,1,.51.51,0,0,1,.22.36c0,.11-.09.21-.26.29a3.94,3.94,0,0,0-.91.74,20.64,20.64,0,0,1-2,1.8,14.31,14.31,0,0,0,4.65,3.65,5.75,5.75,0,0,0-1,1.3c-.16.27-.27.41-.34.41a1.23,1.23,0,0,1-.41-.22A13.31,13.31,0,0,1,93,32.47c.08,3.58.13,5.78.13,6.61a1.78,1.78,0,0,1-.69,1.65,5.71,5.71,0,0,1-2.48.39h-.19c-.18,0-.29,0-.34-.11a2.19,2.19,0,0,1-.15-.43,4.18,4.18,0,0,0-.67-1.39c.64.06,1.11.09,1.4.09a2,2,0,0,0,1-.15c.13-.08.19-.26.19-.53V29.82Zm3.44,4.37a9,9,0,0,0,.18,1.27,2.41,2.41,0,0,1,.07.42c0,.12-.13.28-.4.49a36.31,36.31,0,0,1-3.92,2.53,4.17,4.17,0,0,0-.51.36.45.45,0,0,1-.29.18c-.11,0-.2-.08-.28-.23a13.81,13.81,0,0,1-.77-1.64,10.84,10.84,0,0,0,1.46-.6A29.9,29.9,0,0,0,90.25,34.19Zm-3.2-3.75a12.88,12.88,0,0,1,2.48,2.22.31.31,0,0,1,.11.17.57.57,0,0,1-.11.19l-1,1c-.11.12-.19.18-.23.18s-.08,0-.13-.1a12.48,12.48,0,0,0-2.39-2.37c-.08-.06-.12-.11-.12-.14s0-.1.15-.22l.87-.86c.09-.09.16-.14.21-.14A.45.45,0,0,1,87.05,30.44Zm9-5.49a11.6,11.6,0,0,1,2,1.73.14.14,0,0,1,.08.12q0,.11-.18.24l-.86.72a.59.59,0,0,1-.21.12s-.11,0-.19-.14a10.46,10.46,0,0,0-1.91-1.8c-.07-.05-.1-.09-.1-.12s0-.1.16-.19l.81-.68a.32.32,0,0,1,.19-.09A.61.61,0,0,1,96.1,25Z"/><path class="cls-1" d="M90.19,57c-5.38.31-16.08,1.42-22.69,5.46a1.53,1.53,0,0,0-.71,1.3V99.5a1.55,1.55,0,0,0,2.29,1.32c6.79-3.42,16.62-4.35,21.48-4.61a3.07,3.07,0,0,0,2.94-3V60A3.07,3.07,0,0,0,90.19,57ZM62.93,62.46c-6.6-4-17.3-5.15-22.68-5.46a3.09,3.09,0,0,0-3.32,3V93.2a3.05,3.05,0,0,0,3,3c4.86.26,14.69,1.19,21.49,4.61a1.55,1.55,0,0,0,2.28-1.32V63.74A1.48,1.48,0,0,0,62.93,62.46Z"/></g></g></svg>