<svg xmlns="http://www.w3.org/2000/svg" viewBox="0 0 128.01 124"><defs><style>.cls-1{fill:#fff;}.cls-2{fill:#f8b62c;}</style></defs><title>btn_side_02</title><g id="レイヤー_2" data-name="レイヤー 2"><g id="レイヤー_8" data-name="レイヤー 8"><rect class="cls-1" width="128" height="124"/><rect class="cls-2" x="2.17" y="2.19" width="125.83" height="119.71"/><path class="cls-1" d="M17.46,29.27V27.22a6.94,6.94,0,0,0-.12-1.45,10,10,0,0,1,2.14.31c.24.07.36.18.36.35a.71.71,0,0,1-.11.29,2.2,2.2,0,0,0-.25.7c0,.34-.07.84-.09,1.49a18.78,18.78,0,0,0,2.31-.66l.12,0c.11,0,.17.06.19.18a9.14,9.14,0,0,1,.1,1.4.29.29,0,0,1-.23.29q-1.44.45-2.58.69l0,2.61a10.86,10.86,0,0,1,4.43-1,3.89,3.89,0,0,1,2.89,1.13,3.82,3.82,0,0,1-.23,5.28,4.18,4.18,0,0,1-2.73.84,6.78,6.78,0,0,1-1.47-.15.51.51,0,0,1-.4-.55,3.08,3.08,0,0,0-.54-1.52,7.22,7.22,0,0,0,2.25.32,2,2,0,0,0,1.41-.51,1.8,1.8,0,0,0,.53-1.35,1.69,1.69,0,0,0-.59-1.4,2.12,2.12,0,0,0-1.39-.42,9.31,9.31,0,0,0-4.12,1.23c0,.77,0,1.49.07,2.16.1,1.41.15,2.18.15,2.34a1.45,1.45,0,0,1,0,.39.3.3,0,0,1-.24.2,6.26,6.26,0,0,1-1.33.22c-.12,0-.26-.11-.44-.36A10.24,10.24,0,0,0,14.93,38a3.16,3.16,0,0,0-.57.39.42.42,0,0,1-.31.13c-.14,0-.27-.1-.39-.29a18,18,0,0,1-.83-1.67,6.49,6.49,0,0,0,1.65-.64C15,35.58,16,35,17.42,34.2V31.13c-1.2.09-2.21.14-3,.14a.39.39,0,0,1-.43-.38q-.08-.43-.21-1.56a11.44,11.44,0,0,0,1.41.08C15.69,29.41,16.45,29.37,17.46,29.27Zm.05,6.82c-.76.52-1.35.93-1.76,1.23a16.49,16.49,0,0,0,1.69.8.18.18,0,0,0,.09,0c.06,0,.09,0,.09-.1a.13.13,0,0,0,0-.06c0-.18,0-.5-.05-1S17.52,36.24,17.51,36.09Zm6-6.82a11.61,11.61,0,0,1,.82-1.4c.1-.16.18-.23.24-.23h.07a8.63,8.63,0,0,1,3.82,2.19.32.32,0,0,1,.1.19.62.62,0,0,1-.07.18c-.1.15-.27.38-.51.68l-.46.6a.25.25,0,0,1-.2.06c-.08,0-.14,0-.16-.06A8.47,8.47,0,0,0,23.53,29.27Z"/><path class="cls-1" d="M36,25.38l1.8,0q.18,0,.18.21l0,1.78v2.34l0,1.76c0,.13-.06.2-.18.2l-1.8,0H33.1v5.62l0,3.83a.31.31,0,0,1,0,.18s-.08,0-.16,0H31.4a.28.28,0,0,1-.16,0s0-.07,0-.17l0-3.83v-7.8l0-3.86c0-.1,0-.16,0-.18s.07,0,.16,0l2.1,0Zm.18,1.37H33.1v1.06h3.06Zm0,3.53V29.05H33.1v1.23Zm.67,9.25H35.52a.31.31,0,0,1-.18,0s0-.06,0-.15l0-2.93v-1.3l0-1.9a.29.29,0,0,1,0-.18.49.49,0,0,1,.17,0l1.9,0h2.36l1.91,0c.1,0,.16,0,.17,0a.32.32,0,0,1,0,.17l0,1.56v1.38l0,2.82a.31.31,0,0,1,0,.18.29.29,0,0,1-.17,0H40.38c-.11,0-.17,0-.2,0a.49.49,0,0,1,0-.17v-.6H37.05v1c0,.09,0,.14,0,.16A.61.61,0,0,1,36.83,39.53Zm.22-5v2.27h3.11V34.58Zm5,4.57a11.11,11.11,0,0,0,1.46.09.85.85,0,0,0,.62-.17.88.88,0,0,0,.12-.53V31.59H41.38l-2,0c-.1,0-.17,0-.19,0a.28.28,0,0,1,0-.16l0-1.62V27.18l0-1.63c0-.1,0-.16,0-.18a.29.29,0,0,1,.17,0l2,0H44l2,0a.29.29,0,0,1,.18,0,.49.49,0,0,1,0,.17l0,2.39v7.38l.07,3.58A3.19,3.19,0,0,1,46.06,40a1.42,1.42,0,0,1-.39.6,1.84,1.84,0,0,1-.88.39,10.58,10.58,0,0,1-1.63.09c-.3,0-.48,0-.53-.08a1,1,0,0,1-.15-.47A4.77,4.77,0,0,0,42.06,39.15Zm2.2-12.4H41v1.06h3.28ZM41,30.28h3.28V29.05H41Z"/><path class="cls-1" d="M49.76,27.35a7,7,0,0,1,2.28.59c.19.09.29.19.29.32a1.38,1.38,0,0,1-.15.5A6.89,6.89,0,0,0,52,30.53a23.57,23.57,0,0,0,.33,4.1c.31,1.77.8,2.65,1.47,2.65q.47,0,.87-.63a9.73,9.73,0,0,0,.86-1.87,7.26,7.26,0,0,0,1.15,1.38.53.53,0,0,1,.18.39.76.76,0,0,1-.05.28A5,5,0,0,1,55.41,39a2.5,2.5,0,0,1-1.64.63,2.68,2.68,0,0,1-2.15-1.38,7.89,7.89,0,0,1-1.21-3.32A31.23,31.23,0,0,1,50,29.7,11.45,11.45,0,0,0,49.76,27.35ZM59,29.9c.59-.38,1.06-.65,1.41-.83a.57.57,0,0,1,.2-.07.31.31,0,0,1,.2.11,10.49,10.49,0,0,1,2.32,3,10.92,10.92,0,0,1,1.2,3.18.44.44,0,0,1,0,.1.35.35,0,0,1-.21.29,6.73,6.73,0,0,1-1.41.72l-.16,0c-.11,0-.19-.08-.22-.23A14.27,14.27,0,0,0,61,32.56,12.45,12.45,0,0,0,59,29.9Z"/><path class="cls-1" d="M83.32,31.08a4.85,4.85,0,0,0-.76,1.38c-.09.31-.2.46-.32.46a1,1,0,0,1-.43-.16,19.58,19.58,0,0,1-3.52-2V32c0,.09,0,.15,0,.16s-.07,0-.16,0l-2,0h-2.8l-2,0a.29.29,0,0,1-.17,0A.3.3,0,0,1,71,32v-1.3a22.24,22.24,0,0,1-3.33,2.12,2.21,2.21,0,0,1-.41.18c-.1,0-.21-.15-.34-.45a4.56,4.56,0,0,0-.85-1.2A16.16,16.16,0,0,0,73,25.85a6.09,6.09,0,0,0,.7-1.28c.87.14,1.5.25,1.89.34.22.07.33.17.33.29a.34.34,0,0,1-.18.28.49.49,0,0,0-.15.12A16.53,16.53,0,0,0,83.32,31.08ZM70.86,41.2H69.33c-.1,0-.15,0-.17,0a.32.32,0,0,1,0-.16l0-3.2V36.25l0-2.18c0-.09,0-.15,0-.16a.28.28,0,0,1,.16,0l2.47,0h5.76l2.46,0a.4.4,0,0,1,.2,0,.32.32,0,0,1,0,.16l0,1.91v1.77l0,3.17c0,.09,0,.15,0,.17a.49.49,0,0,1-.17,0H78.5c-.1,0-.15,0-.17,0a.3.3,0,0,1,0-.16v-.6H71.08V41c0,.09,0,.15,0,.16A.29.29,0,0,1,70.86,41.2Zm.22-5.65v3.14H78.3V35.55Zm.25-5.09c.29,0,.94,0,1.94,0h2.8l1.85,0a16.28,16.28,0,0,1-3.31-3.42A17.44,17.44,0,0,1,71.33,30.46Z"/><path class="cls-1" d="M88.67,25.19a16.87,16.87,0,0,1,2.09.3c.25.07.38.2.38.38a.78.78,0,0,1-.06.26,3.32,3.32,0,0,0-.17.77c0,.12,0,.37,0,.73s0,.62,0,.89l.15-.06.12,0c.14,0,.3.14.48.41a1.14,1.14,0,0,1,.29.57,1.12,1.12,0,0,1-.3.5c-.36.45-.68.88-1,1.29v.56a8.09,8.09,0,0,1,5.17-2.11,4.3,4.3,0,0,1,3.41,1.43,4.63,4.63,0,0,1,1.07,3.14c0,2.71-1.6,4.65-4.79,5.8a.67.67,0,0,1-.31.07.55.55,0,0,1-.46-.25,5.81,5.81,0,0,0-1.43-1.19,9.23,9.23,0,0,0,3.62-1.78,3.48,3.48,0,0,0,1.22-2.72A2.76,2.76,0,0,0,97.31,32a2.65,2.65,0,0,0-1.89-.66,5.46,5.46,0,0,0-2.53.66,12.72,12.72,0,0,0-2.29,1.64c0,.91,0,2.12.05,3.63s0,2.74,0,3.28a.2.2,0,0,1-.23.22c-.53,0-1.06.07-1.6.07a.18.18,0,0,1-.21-.2v-.06c0-1.38,0-3.24.1-5.56q-1.22,1.83-2.43,3.57c-.1.11-.18.17-.25.17a.29.29,0,0,1-.2-.1c-.38-.34-.75-.7-1.1-1.08a.26.26,0,0,1-.11-.21.31.31,0,0,1,.11-.21c1.61-1.95,2.93-3.64,4-5,0-.63,0-1.06,0-1.28-1,.32-1.72.54-2.06.66a2.63,2.63,0,0,0-.38.21.49.49,0,0,1-.2.1c-.14,0-.26-.11-.36-.32A15.67,15.67,0,0,1,85,29.92a9.37,9.37,0,0,0,1.23-.18c.78-.18,1.63-.39,2.55-.64,0-.52,0-1.3,0-2.35A6.6,6.6,0,0,0,88.67,25.19Z"/><path class="cls-1" d="M112.82,29.88c0-.6,0-1.44,0-2.53a8,8,0,0,0-.23-2.06,16,16,0,0,1,2.19.36c.22.07.34.18.34.35a.83.83,0,0,1-.12.36,3.4,3.4,0,0,0-.18.8c0,.75,0,1.59-.07,2.53,1.22-.1,2.4-.16,3.51-.21.15,0,.22.07.22.19,0,.39,0,.68,0,.85s0,.43,0,.63a.35.35,0,0,1,0,.22l-.18,0c-1.13,0-2.32.05-3.59.15a27.68,27.68,0,0,1-.22,2.77,2.11,2.11,0,0,1-2.35,2,8,8,0,0,1-1.12-.05c-.24,0-.36-.17-.36-.47a4.94,4.94,0,0,0-.4-1.62,5.6,5.6,0,0,0,1.53.22.83.83,0,0,0,.6-.18,1,1,0,0,0,.25-.59c.06-.5.11-1.14.13-1.92-1.49.11-3,.28-4.4.51,0,1.1,0,1.82,0,2.17,0,.77,0,1.4,0,1.89.06.78.28,1.28.65,1.48a4.85,4.85,0,0,0,2.06.29,31.79,31.79,0,0,0,4.66-.36h.1a.24.24,0,0,1,.26.23,8.57,8.57,0,0,1,.11,1.51c0,.2-.08.3-.24.32a31,31,0,0,1-4.51.27c-1.91,0-3.21-.25-3.89-.77a3.16,3.16,0,0,1-1-2.34c-.08-.91-.12-2.37-.12-4.39-.73.1-1.45.23-2.18.38a7.54,7.54,0,0,0-.81.27.49.49,0,0,1-.19.05c-.11,0-.21-.08-.28-.25a6.14,6.14,0,0,1-.5-1.8,15.34,15.34,0,0,0,1.92-.18c.19,0,.54-.08,1-.17l1-.17V28.71a8.64,8.64,0,0,0-.26-1.91,14.94,14.94,0,0,1,2.17.31c.25.05.37.17.37.38a.93.93,0,0,1-.11.38,2.67,2.67,0,0,0-.18.79c0,.16,0,.44,0,.86s0,.68,0,.87C108.72,30.34,110.2,30.17,112.82,29.88Z"/><path class="cls-1" d="M85.48,58.37H45.85a6,6,0,0,0-6,6V89a6,6,0,0,0,6,6H85.48a6,6,0,0,0,6-6V64.39A6,6,0,0,0,85.48,58.37ZM88.63,90.6,87.48,92,71.42,78.84l-2.49,2.37a4.83,4.83,0,0,1-6.52,0l-2.49-2.37L43.85,92,42.71,90.6,57.79,76.82,42.61,62.55l.89-1.19L65.67,78.15,87.83,61.36l.9,1.19L73.55,76.82Z"/></g></g></svg>