<svg xmlns="http://www.w3.org/2000/svg" viewBox="0 0 128.01 124"><defs><style>.cls-1{fill:#fff;}.cls-2{fill:#71ba2b;}</style></defs><title>btn_side_01</title><g id="レイヤー_2" data-name="レイヤー 2"><g id="レイヤー_6" data-name="レイヤー 6"><rect class="cls-1" width="128" height="124"/><rect class="cls-2" x="2.17" y="2.19" width="125.83" height="119.71"/><path class="cls-1" d="M50.8,63.1A4.06,4.06,0,1,0,46.74,59,4.06,4.06,0,0,0,50.8,63.1Z"/><path class="cls-1" d="M62.18,55.26H88.62V76.78H62.18V75a7.18,7.18,0,0,1-1-.1l-.11,0-1.12-.31V79h31V53h-31V63.81l2.26.79Z"/><path class="cls-1" d="M62.87,88.8a4.06,4.06,0,1,0,4.06-4.06A4.06,4.06,0,0,0,62.87,88.8Z"/><path class="cls-1" d="M66.93,94.88c-3.81,0-7.19,1.27-8,5.5l.07,2.79H74.89l.07-2.79C74.11,96.15,70.73,94.88,66.93,94.88Z"/><path class="cls-1" d="M79.8,88.8a4.06,4.06,0,1,0,4.06-4.06A4.06,4.06,0,0,0,79.8,88.8Z"/><path class="cls-1" d="M83.86,94.88c-3.8,0-7.19,1.27-8,5.5l.07,2.79H91.83l.07-2.79C91.05,96.15,87.67,94.88,83.86,94.88Z"/><path class="cls-1" d="M64.12,72l6.55-3.13a1.74,1.74,0,1,0-1.35-3.2l-5.89,2L58.1,65.83a9.91,9.91,0,0,0-2.4-.53l-3.59,5.54v-3H49.92v3l-4-4.86a7.07,7.07,0,0,0-4.38,5.51L38.53,84a1.74,1.74,0,1,0,3.39.76l3.13-8.29.82,24.68a2.06,2.06,0,1,0,4.11,0l.82-14.72.82,14.72a2.06,2.06,0,0,0,4.12,0l1.16-30,4.7,1.3A3.81,3.81,0,0,0,64.12,72Z"/><rect class="cls-1" x="49.92" y="65.38" width="2.19" height="1.54"/><path class="cls-1" d="M16.74,29.5V27.77a16.82,16.82,0,0,0-.24-3.17,12.33,12.33,0,0,1,2.33.36c.23.05.34.16.34.33a.56.56,0,0,1-.1.29,3.71,3.71,0,0,0-.24,1.6V29l4.69-1.1a3.34,3.34,0,0,0,1.29-.52.38.38,0,0,1,.24-.1.43.43,0,0,1,.26.1,6.1,6.1,0,0,1,1.33,1.17.47.47,0,0,1,.16.33.48.48,0,0,1-.24.36A3.17,3.17,0,0,0,26,30a19.59,19.59,0,0,1-2.86,3.89.75.75,0,0,1-.47.27.54.54,0,0,1-.34-.13,6.26,6.26,0,0,0-1.5-.68,15.78,15.78,0,0,0,2.94-3.6l-5,1.25v4.09a1,1,0,0,0,.47,1,4.48,4.48,0,0,0,1.8.24,25.62,25.62,0,0,0,4.36-.4h.07c.12,0,.2.12.23.37a8.18,8.18,0,0,1,.16,1.51c0,.17-.12.25-.38.27a38.22,38.22,0,0,1-4.29.22q-2.74,0-3.69-.78a3,3,0,0,1-.82-2.4V31.48l-1.15.31a19.19,19.19,0,0,0-2.54.77l-.21.07c-.11,0-.21-.09-.29-.29a13.75,13.75,0,0,1-.73-1.83,29.5,29.5,0,0,0,3.39-.63Z"/><path class="cls-1" d="M32.73,36.07a17.85,17.85,0,0,1,.83-1.7.4.4,0,0,1,.36-.22h.15A29.63,29.63,0,0,1,42.68,37c.16.07.24.16.24.29a.49.49,0,0,1-.05.19,13.37,13.37,0,0,1-.72,1.48c-.09.14-.18.22-.28.22a.51.51,0,0,1-.24-.09A33.68,33.68,0,0,0,32.73,36.07ZM33,30.73A16.58,16.58,0,0,1,33.8,29a.29.29,0,0,1,.27-.21l.19,0a26.52,26.52,0,0,1,5.49,1.75c.19.08.28.18.28.3a.68.68,0,0,1-.05.22,7.82,7.82,0,0,1-.59,1.38c-.08.16-.17.24-.25.24a.47.47,0,0,1-.24-.07A26.87,26.87,0,0,0,33,30.73ZM34.23,26c.34-.83.6-1.4.75-1.72s.19-.26.3-.26a.76.76,0,0,1,.19,0A29,29,0,0,1,41.87,26c.19.08.28.17.28.26a.49.49,0,0,1-.06.19A13.18,13.18,0,0,1,41.46,28a.25.25,0,0,1-.23.19.58.58,0,0,1-.2-.05A29,29,0,0,0,34.23,26Z"/><path class="cls-1" d="M57.26,28.58h2.41l3.13,0h.09c.16,0,.24.11.25.32s0,.46,0,.71,0,.46,0,.69,0,.25-.08.29a.49.49,0,0,1-.26.05l-3-.07H57.22a16.74,16.74,0,0,1-.42,3.1,7.22,7.22,0,0,1-.8,1.82A9.55,9.55,0,0,1,52.17,39a.84.84,0,0,1-.42.12.52.52,0,0,1-.39-.19,5.5,5.5,0,0,0-1.51-1,9.6,9.6,0,0,0,4.07-3.26A8.28,8.28,0,0,0,55,30.54H51.55c-.35,0-.84,0-1.46.05L49,30.64h-.05c-.15,0-.24-.12-.28-.34s-.07-.8-.12-1.79q1.17.09,3.06.09h3.55c0-1.25,0-2.14,0-2.66a8,8,0,0,0-.22-1.82,13,13,0,0,1,2.39.25c.18.05.28.13.28.26a1.4,1.4,0,0,1-.13.39,2.8,2.8,0,0,0-.15,1.09C57.27,27.07,57.27,27.9,57.26,28.58Z"/><path class="cls-1" d="M66.7,30.45a26.21,26.21,0,0,0,3.89.22h5.8c.57,0,1.3,0,2.2,0l1.94,0h.09c.15,0,.23.09.23.26s0,.56,0,.85,0,.57,0,.84-.08.28-.25.28h-.07c-1.8,0-3.14,0-4,0H70L67.39,33a.39.39,0,0,1-.41-.38A16.48,16.48,0,0,1,66.7,30.45Z"/><path class="cls-1" d="M89.63,26.51c.87.46,1.62.91,2.27,1.33a17.62,17.62,0,0,0,2.9-2.07H88.38l-2.49,0c-.12,0-.18-.06-.18-.19V24.27q0-.21.18-.21l2.49,0h7.54a1.52,1.52,0,0,0,.46-.05.78.78,0,0,1,.26-.09c.18,0,.46.19.84.58s.65.7.65.87-.11.25-.32.34a2.42,2.42,0,0,0-.67.48,24.13,24.13,0,0,1-3.73,2.69l.64.52a.26.26,0,0,1,.09.14s0,.09-.15.17L93.7,30h4.07a.81.81,0,0,0,.42-.1.54.54,0,0,1,.27-.09,1.81,1.81,0,0,1,.89.53q.6.48.6.75c0,.12-.08.23-.25.35a2.89,2.89,0,0,0-.67.67,17.19,17.19,0,0,1-2.46,2.55c-.2.18-.34.28-.41.28s-.22-.1-.44-.29a5.44,5.44,0,0,0-1.24-.8,11.58,11.58,0,0,0,2.41-2.12H93v5.79a1.92,1.92,0,0,1-.57,1.63,2.55,2.55,0,0,1-1.11.37,14.33,14.33,0,0,1-1.89.09c-.3,0-.47,0-.53-.09a1.36,1.36,0,0,1-.18-.48,5.37,5.37,0,0,0-.61-1.44c.92.07,1.66.1,2.21.1a.77.77,0,0,0,.56-.15.73.73,0,0,0,.13-.5V31.74h-4.4l-2.26,0c-.1,0-.15,0-.17,0a.3.3,0,0,1,0-.16V30.16c0-.09,0-.15,0-.16s.07,0,.16,0l2.26,0h5.19a25.85,25.85,0,0,0-3.4-2.27c-.08,0-.13-.1-.13-.15s0-.11.13-.18l.89-.83c.09-.08.15-.12.21-.12A.5.5,0,0,1,89.63,26.51Z"/><path class="cls-1" d="M108,29.15a16.32,16.32,0,0,1,1.34,3.26,1.15,1.15,0,0,1,0,.14c0,.1-.08.18-.24.22l-1,.31-.16,0q-.1,0-.15-.15l-.22-.82c-.27,0-.68.09-1.23.13v4.95l0,2.36a.29.29,0,0,1,0,.17.3.3,0,0,1-.16,0h-1.37c-.1,0-.16,0-.18,0s0-.07,0-.16l0-2.36V32.41l-1.7.11a1.79,1.79,0,0,0-.66.15.54.54,0,0,1-.27.09c-.1,0-.18-.11-.22-.31-.09-.43-.17-.94-.25-1.51.44,0,.81,0,1.11,0h.39l1-1.36A25.23,25.23,0,0,0,101.68,27a.27.27,0,0,1-.11-.16.69.69,0,0,1,.12-.23l.67-.89c.07-.11.13-.16.18-.16a.34.34,0,0,1,.16.11l.45.46a17,17,0,0,0,1-1.81,6.29,6.29,0,0,0,.42-1.11,15.25,15.25,0,0,1,1.56.65c.16.09.24.19.24.29s0,.15-.16.24a1.32,1.32,0,0,0-.34.43c-.58,1-1.11,1.82-1.59,2.48l.79.91c.35-.55.76-1.22,1.21-2a8.33,8.33,0,0,0,.56-1.25c.68.33,1.19.58,1.51.78.15.08.22.17.22.27a.31.31,0,0,1-.2.27,2.35,2.35,0,0,0-.59.74q-1.31,2.05-2.74,3.9l2.14-.12c-.19-.46-.36-.84-.51-1.13a.41.41,0,0,1,0-.15c0-.05.07-.1.23-.16l.82-.29a.54.54,0,0,1,.18,0C107.89,29,107.94,29.06,108,29.15Zm-6.37,8.77a13.63,13.63,0,0,0,.79-3.45,6.72,6.72,0,0,0,0-.71c0-.08,0-.18,0-.3l1.39.19c.2,0,.31.11.31.22a1.09,1.09,0,0,1-.11.28,1.86,1.86,0,0,0-.11.57,19.52,19.52,0,0,1-.69,3.45c-.07.26-.15.4-.25.4a1,1,0,0,1-.41-.21A3.18,3.18,0,0,0,101.62,37.92Zm6.5-4.51a.41.41,0,0,1,.16,0c.06,0,.12.07.16.2a25.76,25.76,0,0,1,.92,3.4.68.68,0,0,1,0,.12c0,.09-.07.16-.22.2l-1,.33a.68.68,0,0,1-.2,0c-.06,0-.1-.06-.13-.18a24,24,0,0,0-.82-3.47.64.64,0,0,1,0-.15s.07-.1.2-.15Zm0-4.36a11.43,11.43,0,0,0,2.58-4.35,8.68,8.68,0,0,0,.34-1.53c.6.11,1.18.24,1.75.38.25.07.38.17.38.29a.56.56,0,0,1-.18.36,2,2,0,0,0-.51.91c-.19.53-.33.9-.41,1.1h3.4l1.81,0a.19.19,0,0,1,.22.21c0,.34,0,.84,0,1.5a62.49,62.49,0,0,1-.52,9A3.47,3.47,0,0,1,116,39a2.59,2.59,0,0,1-1.8.61h-.64c-.28,0-.51,0-.71,0s-.45,0-.5-.11a1.31,1.31,0,0,1-.17-.49,4.85,4.85,0,0,0-.5-1.38,15.06,15.06,0,0,0,2,.17H114c.58,0,1-.52,1.15-1.55a54.38,54.38,0,0,0,.45-8.37h-4.29a11.16,11.16,0,0,1-1.41,2c-.2.22-.33.33-.4.33s-.19-.11-.37-.33A3.44,3.44,0,0,0,108.1,29.05Zm3.5,1.32a17.2,17.2,0,0,1,2.05,3.43.33.33,0,0,1,0,.14c0,.07-.07.14-.2.21l-1.14.68a.32.32,0,0,1-.18.07c-.07,0-.12-.06-.16-.18a18.56,18.56,0,0,0-1.89-3.47.46.46,0,0,1-.09-.18c0-.05.07-.11.2-.19l1-.57a.46.46,0,0,1,.18-.07S111.53,30.28,111.6,30.37Z"/></g></g></svg>