<svg xmlns="http://www.w3.org/2000/svg" viewBox="0 0 6.98 4.72"><defs><style>.cls-1{fill:#f8b62d;}</style></defs><title>icon_heading_01</title><g id="レイヤー_2" data-name="レイヤー 2"><g id="レイヤー_1-2" data-name="レイヤー 1"><path class="cls-1" d="M.83,1.12a.41.41,0,0,1-.41.41A.42.42,0,1,1,.42.7.41.41,0,0,1,.83,1.12Z"/><path class="cls-1" d="M7,1.12A.42.42,0,1,1,6.56.7.41.41,0,0,1,7,1.12Z"/><path class="cls-1" d="M3.9.42a.41.41,0,0,1-.41.41A.41.41,0,0,1,3.07.42.42.42,0,0,1,3.49,0,.41.41,0,0,1,3.9.42Z"/><polygon class="cls-1" points="5.93 4.72 6.29 1.91 4.81 2.95 3.49 1.21 2.17 2.95 0.68 1.91 1.04 4.72 5.93 4.72"/></g></g></svg>