<svg xmlns="http://www.w3.org/2000/svg" viewBox="0 0 93.75 156.84"><defs><style>.cls-1{fill:#fff;}</style></defs><title>icon-tel</title><g id="レイヤー_2" data-name="レイヤー 2"><g id="レイヤー_1-2" data-name="レイヤー 1"><path class="cls-1" d="M8.38,39.75C0,45.2-1.67,62.23,1.5,76.11a125.36,125.36,0,0,0,16.58,39,130.21,130.21,0,0,0,28.81,31c11.38,8.56,27.61,14,36,8.55,4.25-2.76,10.56-10.28,10.85-11.63l-4.52-7L76.82,116.92c-.92-1.42-6.7-.12-9.64,1.54-4,2.25-7.62,8.28-7.62,8.28-2.71,1.57-5,0-9.75-2.19-5.84-2.69-12.41-11-17.64-18.61-4.78-7.86-9.73-17.27-9.8-23.7-.06-5.24-.56-8,2-9.8,0,0,7-.87,10.66-3.58,2.72-2,6.26-6.75,5.34-8.17L27.94,41.55l-4.51-7C22.08,34.31,12.63,37,8.38,39.75Z"/><path class="cls-1" d="M78.74,54A40,40,0,0,0,51.51,6.26L53.22,0A46.54,46.54,0,0,1,85,55.75Z"/><path class="cls-1" d="M65.18,50.32A26,26,0,0,0,47.79,19.81l1.72-6.26A32.46,32.46,0,0,1,71.44,52Z"/><path class="cls-1" d="M51.61,46.6a11.9,11.9,0,0,0-7.53-13.21l1.71-6.27a18.39,18.39,0,0,1,12.09,21.2Z"/></g></g></svg>