<svg xmlns="http://www.w3.org/2000/svg" viewBox="0 0 271.09 91.25"><defs><style>.cls-1{fill:#131813;}.cls-2{fill:#71ba2b;}.cls-3{fill:#fff;}.cls-4{fill:#fffffa;}.cls-5{fill:#f8b62d;}</style></defs><title>logo</title><g id="レイヤー_2" data-name="レイヤー 2"><g id="元々の緑"><path class="cls-1" d="M134.38,77.47l8.06-13.07a2.51,2.51,0,0,0-.73-3.46,2.5,2.5,0,0,0-3.47.76l-8.06,13.07a2.5,2.5,0,0,0,.73,3.45,2.54,2.54,0,0,0,1.36.4A2.51,2.51,0,0,0,134.38,77.47Z"/><path class="cls-1" d="M131.49,66.39,139.26,54a2.49,2.49,0,0,0,.35-1.88,2.51,2.51,0,0,0-2.44-2,2.5,2.5,0,0,0-2.1,1.15L127.3,63.68a2.49,2.49,0,0,0,.73,3.45,2.42,2.42,0,0,0,1.36.41h0A2.5,2.5,0,0,0,131.49,66.39Z"/><path class="cls-1" d="M178,35.17a2.49,2.49,0,0,0-.92-3.41,2.45,2.45,0,0,0-1.24-.33,2.51,2.51,0,0,0-2.17,1.24l-13,22.57A2.51,2.51,0,0,0,162.81,59h0A2.52,2.52,0,0,0,165,57.74l3.43-5.94V83a2.5,2.5,0,0,0,5,0V43.15Z"/><path class="cls-1" d="M129.26,32.34a2.46,2.46,0,0,0-1.61-1,2.12,2.12,0,0,0-.44,0,2.48,2.48,0,0,0-2.45,2.06l-3.84,21.75A2.51,2.51,0,0,0,123,58a3.13,3.13,0,0,0,.43,0A2.49,2.49,0,0,0,125.84,56l3.83-21.74A2.48,2.48,0,0,0,129.26,32.34Z"/><path class="cls-1" d="M151,43.28h-19.5a2.5,2.5,0,0,0,0,5h17V79.69H136.26a2.5,2.5,0,0,0,0,5H151a2.5,2.5,0,0,0,2.49-2.5V45.78A2.5,2.5,0,0,0,151,43.28Z"/><path class="cls-1" d="M103.25,57.63a3.13,3.13,0,0,0,.44,0,2.49,2.49,0,0,0,2.45-2.07l1.29-7.33h11.5a2.5,2.5,0,1,0,0-5h-2.72V33.67a2.5,2.5,0,1,0-5,0v9.61h-2.91l1.14-6.46A2.48,2.48,0,0,0,109,35a2.46,2.46,0,0,0-1.61-1,2.12,2.12,0,0,0-.44,0A2.49,2.49,0,0,0,104.54,36l-3.31,18.79a2.49,2.49,0,0,0,2,2.89Z"/><path class="cls-1" d="M223.3,40.41h42.34a2.5,2.5,0,0,0,0-5H223.3a2.5,2.5,0,0,0,0,5Z"/><path class="cls-1" d="M263.74,56H251a2.5,2.5,0,0,0,0,5h12.76a2.5,2.5,0,0,0,0-5Z"/><path class="cls-1" d="M268.59,78.12H247V44.62a2.5,2.5,0,0,0-5,0V56H225.15a2.5,2.5,0,0,0,0,5H242V78.12H220.35a2.5,2.5,0,1,0,0,5h48.24a2.5,2.5,0,1,0,0-5Z"/><path class="cls-1" d="M210.29,61h-12.2V52.35a2.5,2.5,0,1,0-5,0V61H180.52a2.5,2.5,0,1,0,0,5h12.57V83a2.5,2.5,0,0,0,5,0V66h12.2a2.5,2.5,0,0,0,0-5Z"/><path class="cls-1" d="M179.81,57.63a3.27,3.27,0,0,0,.44,0,2.5,2.5,0,0,0,2.46-2.07L184,48.27h24.72a2.5,2.5,0,1,0,0-5H198.08s0-.09,0-.14V34a2.5,2.5,0,0,0-5,0v9.18s0,.1,0,.14h-8.22L186,36.82a2.53,2.53,0,0,0-.41-1.87,2.5,2.5,0,0,0-1.62-1,2.09,2.09,0,0,0-.43,0A2.5,2.5,0,0,0,181.1,36l-3.31,18.79a2.46,2.46,0,0,0,.41,1.86A2.52,2.52,0,0,0,179.81,57.63Z"/><path class="cls-1" d="M120.24,58.39a2.51,2.51,0,0,0-.86.15l-3.17,1.16V52a2.5,2.5,0,1,0-5,0V64.54l-8.77,3.18a2.5,2.5,0,0,0-1.4,1.29,2.44,2.44,0,0,0-.09,1.91,2.5,2.5,0,0,0,2.35,1.65,2.46,2.46,0,0,0,.85-.16l7.06-2.56V83a2.5,2.5,0,0,0,5,0V65l4.88-1.78a2.5,2.5,0,0,0-.85-4.84Z"/><path class="cls-1" d="M134,14.42a.63.63,0,0,0-.63.63v5.31a10.63,10.63,0,0,1-.08,1.25,1.46,1.46,0,0,1-.31.69,1.87,1.87,0,0,1-1.51.58,1.92,1.92,0,0,1-1.51-.59,1.41,1.41,0,0,1-.3-.68,10.63,10.63,0,0,1-.08-1.25V15.05a.63.63,0,0,0-.63-.63h-1.21a.63.63,0,0,0-.63.63V20.5a10.66,10.66,0,0,0,.09,1.25,4.78,4.78,0,0,0,.67,1.87,4.33,4.33,0,0,0,3.6,1.58,4.27,4.27,0,0,0,3.58-1.58,4.79,4.79,0,0,0,.68-1.87,10.66,10.66,0,0,0,.09-1.25V15.05a.63.63,0,0,0-.63-.63Z"/><path class="cls-1" d="M112.13,19.45a2.57,2.57,0,0,0,.87-2.06,2.7,2.7,0,0,0-2-2.66,6.31,6.31,0,0,0-2.15-.31h-2.72a.57.57,0,0,0-.57.57v9.39a.58.58,0,0,0,.57.57h3.08a5.58,5.58,0,0,0,2.17-.38,3,3,0,0,0,2-2.85A2.54,2.54,0,0,0,112.13,19.45ZM108,16.67h.79c1.7,0,1.7.58,1.7.84s0,.89-1.78.89H108Zm1.06,6H108V20.61h.78a4.2,4.2,0,0,1,1.29.2c.65.23.75.54.75.84S110.82,22.69,109.06,22.69Z"/><path class="cls-1" d="M157.72,23l-3.58-3.57,3.15-3.15a.58.58,0,0,0,0-.81l-.94-.94a.58.58,0,0,0-.81,0l-4,4V15a.59.59,0,0,0-.56-.59h-1.34a.59.59,0,0,0-.56.59v9.39a.56.56,0,0,0,.56.56H151a.56.56,0,0,0,.56-.56V22.07l.06-.05.82-.81L156,24.78a.58.58,0,0,0,.81,0l1-.94A.6.6,0,0,0,157.72,23Z"/><path class="cls-1" d="M179.73,23l-3.57-3.57,3.15-3.15a.59.59,0,0,0,0-.81l-1-.94a.58.58,0,0,0-.81,0l-4,4V15a.59.59,0,0,0-.56-.59h-1.33a.59.59,0,0,0-.56.59v9.39a.55.55,0,0,0,.56.56H173a.55.55,0,0,0,.56-.56V22.07l.07-.05.81-.81L178,24.78a.58.58,0,0,0,.81,0l.94-.94A.59.59,0,0,0,179.73,23Z"/><path class="cls-1" d="M200.57,22.62h-4.23V20.67h3.54a.57.57,0,0,0,.57-.57V19a.58.58,0,0,0-.57-.57h-3.54V16.73h4.07a.58.58,0,0,0,.57-.57V15a.57.57,0,0,0-.57-.57h-5.95a.56.56,0,0,0-.57.57v9.39a.57.57,0,0,0,.57.57h6.11a.57.57,0,0,0,.56-.57V23.19A.57.57,0,0,0,200.57,22.62Z"/><path class="cls-1" d="M223.28,14.42H222a.57.57,0,0,0-.57.57s0,4.85,0,5l-3.36-5.11a1.18,1.18,0,0,0-.88-.47h-1.41a.57.57,0,0,0-.57.57v9.39a.58.58,0,0,0,.57.57h1.31a.57.57,0,0,0,.56-.57V18.65l3.84,5.82a1.21,1.21,0,0,0,.88.48h.92a.58.58,0,0,0,.57-.57V15A.57.57,0,0,0,223.28,14.42Z"/><path class="cls-1" d="M267.25,14.42h-1.33a.57.57,0,0,0-.57.57v3.38h-3.59V15a.56.56,0,0,0-.57-.57h-1.33a.56.56,0,0,0-.56.57v9.39a.57.57,0,0,0,.56.57h1.33a.57.57,0,0,0,.57-.57V20.64h3.59v3.74a.58.58,0,0,0,.57.57h1.33a.57.57,0,0,0,.56-.57V15A.56.56,0,0,0,267.25,14.42Z"/><path class="cls-1" d="M244.39,15.65a4.73,4.73,0,0,0-3.47-1.37,4.67,4.67,0,0,0-3.46,1.37,5.45,5.45,0,0,0-1.52,4,5.5,5.5,0,0,0,1.55,4.07,5,5,0,0,0,6.87,0,5.43,5.43,0,0,0,1.55-4A5.49,5.49,0,0,0,244.39,15.65Zm-3.47,7.17a2.1,2.1,0,0,1-1.56-.64,3.34,3.34,0,0,1-.87-2.5,3.33,3.33,0,0,1,.88-2.51,2.17,2.17,0,0,1,3.1,0,3.3,3.3,0,0,1,.89,2.46,3.43,3.43,0,0,1-.87,2.55A2.16,2.16,0,0,1,240.92,22.82Z"/><path class="cls-2" d="M23.43,75.56a12,12,0,0,1-2.76,8.2,9.82,9.82,0,0,1-7.61,3.06,8.76,8.76,0,0,1-6.15-2.63,7.88,7.88,0,0,1-2.49-5.28,3.59,3.59,0,0,1,0-.47,6.82,6.82,0,0,1,6.64-6.36,5.73,5.73,0,0,1,2.22.38,3.27,3.27,0,0,1,1.61,1.41,5,5,0,0,1,.61,2V76a1.53,1.53,0,0,1-.17.67,2.9,2.9,0,0,1-.94,1.13,1.77,1.77,0,0,1-1,.4l-.25,0a1,1,0,0,1-.33-.28,2.21,2.21,0,1,0-3.39,2.84,5.27,5.27,0,0,0,1.83,1.44,5,5,0,0,0,2.14.48A5.77,5.77,0,0,0,16,82a7.44,7.44,0,0,0,2.79-2.4A6.46,6.46,0,0,0,20,76a4.36,4.36,0,0,0,0-.51A8.92,8.92,0,0,0,18,70.63V52.7H13.59V67.94a10.54,10.54,0,0,0-2.51-.29A11.24,11.24,0,0,0,.05,78a6.94,6.94,0,0,0,0,.91,12.18,12.18,0,0,0,3.8,8.42,13.17,13.17,0,0,0,9.27,3.92,14.26,14.26,0,0,0,10.87-4.52,16.35,16.35,0,0,0,3.92-11.17V52.7H23.43Z"/><path class="cls-2" d="M95.37,78A11.24,11.24,0,0,0,84.32,67.65a11.09,11.09,0,0,0-2.51.28V52.7H77.39V70.62a9.06,9.06,0,0,0-1.91,4.83,4.35,4.35,0,0,0,0,.51,6.38,6.38,0,0,0,1.21,3.62A7.37,7.37,0,0,0,79.46,82a5.9,5.9,0,0,0,2.54.6,5.14,5.14,0,0,0,2.14-.47A5.42,5.42,0,0,0,86,80.66a2.21,2.21,0,0,0-3.39-2.83,1.11,1.11,0,0,1-.33.28l-.25,0a1.8,1.8,0,0,1-1-.4,3.1,3.1,0,0,1-1-1.13,1.76,1.76,0,0,1-.17-.68v-.08a5,5,0,0,1,.61-2,3.24,3.24,0,0,1,1.6-1.41,5.7,5.7,0,0,1,2.22-.39A6.82,6.82,0,0,1,91,78.43c0,.15,0,.31,0,.47a7.82,7.82,0,0,1-2.48,5.28,8.81,8.81,0,0,1-6.15,2.64,9.85,9.85,0,0,1-7.61-3.06A12,12,0,0,1,72,75.56V52.7H67.55V75.56a16.4,16.4,0,0,0,3.92,11.18,14.28,14.28,0,0,0,10.88,4.5,13.21,13.21,0,0,0,9.27-3.92,12.22,12.22,0,0,0,3.79-8.42C95.42,78.6,95.4,78.29,95.37,78Z"/><path class="cls-2" d="M62.47,76.13a3,3,0,0,0-3.85,1c-.5.66-.28,1.78-.07,1.3.31-1,1.93-1,2.45,0a1.66,1.66,0,0,1-1.51,2.28c-1.57.21-2.22-1.09-3.16-2.15a9.28,9.28,0,0,0-4.42-2.82,4.71,4.71,0,0,0-4.3,1,4.69,4.69,0,0,0-4.29-1,9.26,9.26,0,0,0-4.43,2.82c-.94,1.06-1.59,2.35-3.16,2.14a1.66,1.66,0,0,1-1.51-2.27,1.38,1.38,0,0,1,2.46,0c.2.48.42-.64-.08-1.3a3,3,0,0,0-3.85-1c-2.13.85-2.95,4-1.94,6.18,1.41,3,5.41,4.59,9.61,4.21,3-.28,5.3-2,7.19-4.88,1.89,2.86,4.22,4.6,7.2,4.88,4.19.38,8.19-1.16,9.61-4.21C65.43,80.12,64.61,77,62.47,76.13Z"/><path class="cls-2" d="M23.84,47.79a1.05,1.05,0,0,0,.35-.83,1.1,1.1,0,0,0-.81-1.08,2.62,2.62,0,0,0-.86-.12h-1.1a.23.23,0,0,0-.23.23v3.79a.22.22,0,0,0,.23.22h1.24a2.28,2.28,0,0,0,.88-.15,1.19,1.19,0,0,0,.79-1.15A1,1,0,0,0,23.84,47.79Zm-1.66-1.13h.31c.69,0,.69.24.69.34s0,.36-.72.36h-.28Zm.42,2.43h-.42v-.84h.31a1.5,1.5,0,0,1,.52.09c.26.09.3.21.3.34S23.31,49.09,22.6,49.09Z"/><path class="cls-2" d="M44,49.24,42.58,47.8l1.27-1.27a.24.24,0,0,0,0-.33l-.38-.38a.24.24,0,0,0-.33,0l-1.62,1.62V46a.24.24,0,0,0-.23-.23h-.54a.22.22,0,0,0-.22.23v3.79a.22.22,0,0,0,.22.23h.54a.24.24,0,0,0,.23-.23v-.94h0l.33-.33,1.44,1.44a.24.24,0,0,0,.33,0l.38-.38A.22.22,0,0,0,44,49.24Z"/><path class="cls-2" d="M53.8,49.24,52.36,47.8l1.27-1.27a.24.24,0,0,0,0-.33l-.38-.38a.22.22,0,0,0-.32,0L51.3,47.45V46a.23.23,0,0,0-.22-.23h-.54a.23.23,0,0,0-.23.23v3.79a.23.23,0,0,0,.23.23h.54a.22.22,0,0,0,.22-.23v-.94h0l.33-.33,1.44,1.44a.22.22,0,0,0,.32,0l.38-.38A.22.22,0,0,0,53.8,49.24Z"/><path class="cls-2" d="M63.1,49.07H61.39v-.79h1.43a.23.23,0,0,0,.23-.23V47.6a.23.23,0,0,0-.23-.23H61.39v-.68H63a.22.22,0,0,0,.22-.23V46a.22.22,0,0,0-.22-.23H60.63a.22.22,0,0,0-.22.23v3.79a.22.22,0,0,0,.22.22H63.1a.23.23,0,0,0,.23-.22V49.3A.23.23,0,0,0,63.1,49.07Z"/><path class="cls-2" d="M73.16,45.76h-.53a.23.23,0,0,0-.23.23v2L71.05,46a.46.46,0,0,0-.35-.19h-.57a.23.23,0,0,0-.23.23v3.79a.22.22,0,0,0,.23.22h.52a.22.22,0,0,0,.23-.22V47.47l1.55,2.34a.46.46,0,0,0,.36.19h.37a.23.23,0,0,0,.23-.22V46A.23.23,0,0,0,73.16,45.76Z"/><rect class="cls-2" x="13.4" y="45.1" width="68.29" height="5.41" transform="translate(-0.05 0.05) rotate(-0.06)"/><polygon class="cls-2" points="3.34 17.8 18 11.52 21.33 21.41 17.59 25.78 11.53 35.28 10.75 37.16 12.34 37.06 17.28 47.35 13.96 42.39 3.34 17.8"/><polygon class="cls-2" points="72.33 33.27 85.69 33.46 81.25 49.68 69.86 47.77 72.33 33.27"/><polygon class="cls-2" points="58.89 22.09 74.06 23.37 74.06 24.38 70.3 47.84 56.66 48.58 58.89 22.09"/><path class="cls-2" d="M11.08,37.31c.76-.05,21.06-5.12,21.06-5.12l2,13.52-20.61.76Z"/><path class="cls-2" d="M29.89.19,62.19,0l1.07,3.31-3.37,43s-8.35-1.06-13.44-.5-13.62-.8-13.62-.8L28.05,3.5Z"/><polygon class="cls-2" points="70.21 21.64 78.45 15.97 81.33 16.45 90.1 34.81 72.33 33.28 73.62 23.58 67.54 23.39 70.21 21.64"/><polygon class="cls-2" points="22.05 17.35 31.65 22.37 33.3 35.11 8.51 40.37 8.7 35.45 22.05 17.35"/><polygon class="cls-3" points="10.54 25.31 12.32 24.48 13.15 27.16 11.25 27.91 10.54 25.31"/><polygon class="cls-4" points="61.79 27.34 64.91 27.95 63.85 32.67 60.99 32.34 61.79 27.34"/><polygon class="cls-4" points="67.94 28.21 70.08 28.68 69.34 33.14 67.2 32.81 67.94 28.21"/><path class="cls-4" d="M66.46,36.67c.12.06,2.48.43,2.48.43l-.83,5.16-2.33-.37Z"/><path class="cls-4" d="M61.35,35.67c.24,0,2.5.33,2.5.33L63,41.33,60.29,41Z"/><polygon class="cls-4" points="76.4 36.45 79.66 36.82 78.25 42.26 75.16 41.56 76.4 36.45"/><polygon class="cls-3" points="17.32 39.17 20.13 38.67 21.53 42.27 18.75 42.68 17.32 39.17"/><polygon class="cls-3" points="21.91 38.14 24.55 37.76 25.44 41.09 23.14 41.77 21.91 38.14"/><polygon class="cls-3" points="44.09 6.91 47.28 6.91 47.28 12.01 44.45 12.01 44.09 6.91"/><rect class="cls-3" x="52.8" y="6.91" width="2.84" height="6"/><rect class="cls-3" x="52.8" y="17.68" width="2.84" height="6.17"/><rect class="cls-3" x="44.36" y="17.68" width="3.32" height="6.17"/><polygon class="cls-3" points="36.3 17.21 39.69 17.21 39.69 23.25 35.93 23.25 36.3 17.21"/><polygon class="cls-3" points="36.48 27.93 39.98 27.8 39.98 34.76 36.66 34.72 36.48 27.93"/><polygon class="cls-3" points="45.57 28.28 47.69 28.28 48.22 34.63 44.93 34.63 45.57 28.28"/><polygon class="cls-3" points="52.8 27.76 55.64 27.76 55.64 34.31 52.8 34.63 52.8 27.76"/><path class="cls-3" d="M36.3,6.91H39v5a15.33,15.33,0,0,1-2.71,0C36.34,11.77,36.3,6.91,36.3,6.91Z"/><polygon class="cls-3" points="13.53 22.17 15.31 21.34 16.14 24.02 14.24 24.77 13.53 22.17"/><polygon class="cls-3" points="8.59 20.44 10.38 19.61 11.21 22.3 9.31 23.05 8.59 20.44"/><polygon class="cls-3" points="11.58 17.31 13.37 16.48 14.2 19.16 12.3 19.91 11.58 17.31"/><path class="cls-5" d="M238.27,9.25a.42.42,0,0,1-.42.42.41.41,0,0,1-.41-.42.41.41,0,0,1,.41-.41A.41.41,0,0,1,238.27,9.25Z"/><path class="cls-5" d="M244.41,9.25a.42.42,0,0,1-.42.42.41.41,0,0,1-.41-.42.41.41,0,0,1,.41-.41A.41.41,0,0,1,244.41,9.25Z"/><path class="cls-5" d="M241.34,8.56a.41.41,0,0,1-.42.41.41.41,0,0,1-.41-.41.41.41,0,0,1,.41-.42A.42.42,0,0,1,241.34,8.56Z"/><polygon class="cls-5" points="243.37 12.86 243.73 10.04 242.25 11.09 240.92 9.35 239.6 11.09 238.12 10.04 238.48 12.86 243.37 12.86"/></g></g></svg>