<svg xmlns="http://www.w3.org/2000/svg" xmlns:xlink="http://www.w3.org/1999/xlink" viewBox="0 0 233.89 224.42"><defs><style>.cls-1,.cls-8,.cls-9{fill:none;}.cls-2{clip-path:url(#clip-path);}.cls-3{fill:#71ba2b;}.cls-11,.cls-4{fill:#fff;}.cls-12,.cls-5{fill:#bfdc93;}.cls-6{fill:#009172;}.cls-7{fill:#50aa92;}.cls-8{stroke:#50aa92;stroke-miterlimit:10;}.cls-10,.cls-11,.cls-12,.cls-14,.cls-9{stroke:#231815;stroke-linecap:round;stroke-linejoin:round;stroke-width:2px;}.cls-10,.cls-13{fill:#231815;}.cls-14{fill:#8fc31f;}</style><clipPath id="clip-path" transform="translate(-7.87 -13.29)"><rect class="cls-1" width="246.93" height="233.93"/></clipPath></defs><title>img_seminarlist_img01</title><g id="レイヤー_2" data-name="レイヤー 2"><g id="レイヤー_1-2" data-name="レイヤー 1"><g class="cls-2"><path class="cls-3" d="M83.93,189.64A5,5,0,0,0,85,187.1L67.78,156.74s-20.22,4.4-27.22,9.41a127.58,127.58,0,0,0-2-20.62s-24.82,2.84-28.09,2.63c-1.23,7.54-5,46.53,12.19,53.12C38.1,203.69,61.32,204,61.32,204l-.5,31.2H78.13S76.53,198.42,83.93,189.64Z" transform="translate(-7.87 -13.29)"/><path class="cls-4" d="M93.63,82.74s-1.46,3.75-.29,10.92,2,24.71,2,24.71l0,14.44s9.54,6.35,17.29,0a19.74,19.74,0,0,0,.35-4.86l3.41-.62s2.94,8.86,12.72,8.5,13.51-5,13.51-5-1-16.17,2.39-25.48c1.62-8.19-2.67-25.29-4.64-26.24C140.45,79.09,114.64,77,93.63,82.74Z" transform="translate(-7.87 -13.29)"/><path class="cls-5" d="M110.86,84.56V90.2s-9.12-3.66-14.42-.61C99.83,86.19,100.63,84.05,110.86,84.56Z" transform="translate(-7.87 -13.29)"/><path class="cls-5" d="M120.35,84.56l-.72,5s7.74-4.71,15.72-2.2C133,84.25,126.54,82.61,120.35,84.56Z" transform="translate(-7.87 -13.29)"/><path class="cls-6" d="M184.48,149.24s43.36,11.36,56.27,87.47c-9.32,0-67.15-1.48-67.15-1.48S170.19,211.4,130,208.08c-13.63-3.31-38.25-10.31-42.56-16.52-2.78-15.67-23.7-20.78-19.67-34.82A137.29,137.29,0,0,1,82,149.24Z" transform="translate(-7.87 -13.29)"/><path class="cls-5" d="M113.08,128.89s1.63,5.55-9.11,6.71c-6.08.25-8.55-2.79-8.55-2.79s-9.21,3.84-2.08,14.12c5.43,6.69,8.89,10.2,18.49,13.69,2.34,1.43-.94,5.53-.94,5.53s10.45,0,18.3-6.07c9.81-5.62,21.2-9.64,20.73-20.43-2.47-1.4-7.1-5.13-7.22-8.84-4.21,2.41-21.2,10.92-26.23-3.48C114.81,127.1,113.28,127.77,113.08,128.89Z" transform="translate(-7.87 -13.29)"/><path class="cls-5" d="M140.45,79.09s6.8,13.23,5,20-8.59,34.92,4.47,40.57c6.45,2.91,20,3,28.7-3.8s9.48-16.12,1.59-18.09c-3.38-1.65-6.28,1.95-6.28,1.95s4.81-21.21-6.1-38.07C160.72,80.58,146,78.43,140.45,79.09Z" transform="translate(-7.87 -13.29)"/><path class="cls-5" d="M93.75,104.39s-3.45,18.71-5,19.26c-3-3.15-10-1.22-10.58,6.27s9.49,8.81,11.17,8.23,4.13-5,6.12-5.34a71.82,71.82,0,0,0,.35-9.81s8.19-.51,9.83-1.67c3.25,3,9.05,1.1,9.05,1.1a7,7,0,0,0,6.78-.58c4.17,1.54,6.76,1.81,9.18-.94,3.86,2.4,7.56-2.26,8-5.44-3.78,2.29-7.81,3.09-13.77-.61-4.19-1-8.33,1.86-8.33,1.86s-4.89.29-7.54-2.16c-3,2.07-7.55,5.09-13.56,4.55C95.48,115.66,93.75,104.39,93.75,104.39Z" transform="translate(-7.87 -13.29)"/><path class="cls-4" d="M171,139.85s16,4.14,13.44,9.39-16.33,14.43-62.61,14.91c6.18-3.32,16.84-9.52,16.84-9.52s11.21-7,11.14-13.7C153.63,140.71,167.67,141.4,171,139.85Z" transform="translate(-7.87 -13.29)"/><path class="cls-4" d="M111.14,164.47s5.47-3.24-3.2-6.37c-8.43-3.13-14.64-8.49-16.73-16.56-2.66.72-11.26,5.41-6.56,10.77S111.14,164.47,111.14,164.47Z" transform="translate(-7.87 -13.29)"/><path class="cls-3" d="M173.6,235.23H145.48s-1.51-19.29-4.35-24.38c.25-1.86,8.79,1.62,19.08,7.15C170.54,226,173.6,235.23,173.6,235.23Z" transform="translate(-7.87 -13.29)"/><path class="cls-4" d="M40.32,143.61s-3.59-11.14-4.64-10.8c-1.27.4,13.15-9.93,13.74-11s3-7.34-.38-11.88c3.12-6.47-.88-11.85-9.21-10.89s-17.09.4-18.84,6.25-5.08,27.48-5.08,27.48S6,143.54,9.51,146.72C14.43,148,33.79,149.65,40.32,143.61Z" transform="translate(-7.87 -13.29)"/><path class="cls-7" d="M107.69,65.13,98.86,23.68s12-17,42.6-4.85l-8,44S116,62.15,107.69,65.13Z" transform="translate(-7.87 -13.29)"/><polygon class="cls-6" points="133.59 5.54 137.86 15.22 129.01 49.53 125.58 49.53 133.59 5.54"/><polygon class="cls-6" points="158.37 20.78 167.56 41.61 143.34 33.84 158.37 20.78"/><path class="cls-7" d="M172,52.71l-4.56,14.36s-19-3.53-19.64-3.6l6.33-16.56Z" transform="translate(-7.87 -13.29)"/><path class="cls-5" d="M143,39.23s12.79,2.08,15,5.39l-8,18.2-13.61-.39Z" transform="translate(-7.87 -13.29)"/><polygon class="cls-3" points="150.12 31.33 151.8 37.73 145.28 50.02 142.13 49.53 150.12 31.33"/><path class="cls-7" d="M95.42,34.07l6.51,31.74L91,68.35l-10-27S88.07,34,95.42,34.07Z" transform="translate(-7.87 -13.29)"/><polygon class="cls-5" points="94.3 25.94 87.78 30.52 87.2 39.8 90.98 52.52 99.66 51.09 94.3 25.94"/><path class="cls-6" d="M106,28.08s3.25-1.8,4.8-2.44l.65,6.18a20.23,20.23,0,0,0-4.61,1.75Z" transform="translate(-7.87 -13.29)"/><path class="cls-6" d="M114.1,24.81s4.48-1.07,7.45-.6l.23,6.2a22.86,22.86,0,0,0-6.88.26Z" transform="translate(-7.87 -13.29)"/><path class="cls-6" d="M125.38,24.41a42,42,0,0,1,7.65.81l-1,6.4a24.39,24.39,0,0,0-6.83-1.05Z" transform="translate(-7.87 -13.29)"/><path class="cls-6" d="M125.22,35.54a40.07,40.07,0,0,1,6,1l-.84,5.07a37.61,37.61,0,0,0-5.53-.84Z" transform="translate(-7.87 -13.29)"/><path class="cls-6" d="M121.24,35.18a20,20,0,0,0-6.22.23l.43,5.15a34.26,34.26,0,0,1,5.74-.22Z" transform="translate(-7.87 -13.29)"/><path class="cls-6" d="M111.38,36.36l.66,5a22.58,22.58,0,0,0-4,1.25l-.79-4.31A11.27,11.27,0,0,1,111.38,36.36Z" transform="translate(-7.87 -13.29)"/><path class="cls-6" d="M116.25,45.88a10.82,10.82,0,0,1,5.18-.2l.18,4.87s-3.51-.15-4.88.45Z" transform="translate(-7.87 -13.29)"/><path class="cls-6" d="M112.88,46.61l.66,4.81a14.7,14.7,0,0,0-3.4,1.09l-1-4.72A6.43,6.43,0,0,1,112.88,46.61Z" transform="translate(-7.87 -13.29)"/><path class="cls-6" d="M125,46.14l-.19,4.55s3.37.3,4.68,1.1l.77-4.8A9.23,9.23,0,0,0,125,46.14Z" transform="translate(-7.87 -13.29)"/><path class="cls-6" d="M157.84,59.65,162.42,61s3.14-6.8-.33-7.76S157.84,59.65,157.84,59.65Z" transform="translate(-7.87 -13.29)"/><line class="cls-8" x1="154.52" y1="39.4" x2="151.91" y2="47.68"/><line class="cls-8" x1="156.21" y1="45.09" x2="150.54" y2="43.54"/><path class="cls-3" d="M149.69,51.79l2.57-4.5s-3.51-1.53-4.45-1.25l-1.67,5Z" transform="translate(-7.87 -13.29)"/><path class="cls-3" d="M146.79,59.53l1.77-4.63s-2.42-1.26-3.38-.93l-1.62,4.41S146.06,58.72,146.79,59.53Z" transform="translate(-7.87 -13.29)"/><path class="cls-3" d="M99,55.68l1.48,5,.09.28a24.13,24.13,0,0,1,3.56-1.21l-1.39-5.56S100.05,54.73,99,55.68Z" transform="translate(-7.87 -13.29)"/><polygon class="cls-3" points="87.03 39.22 95.87 35.24 94.19 26.18 87.78 30.52 87.03 39.22"/><path class="cls-6" d="M87.13,43.64l1.75,5.28,4.77-2.31-1.87-5.32S88.16,42.56,87.13,43.64Z" transform="translate(-7.87 -13.29)"/><path class="cls-7" d="M89.77,69.33l2.52,9.13a168.1,168.1,0,0,1,30.54-4.16c17.15-.76,45.36,3.32,45.36,3.32l.9-9.42S150,61.06,123.31,63.31,89.77,69.33,89.77,69.33Z" transform="translate(-7.87 -13.29)"/><path class="cls-6" d="M92.29,78.46l1.34,4.28s36.93-7.38,74.2-1.1l.36-4S127.36,69.47,92.29,78.46Z" transform="translate(-7.87 -13.29)"/><path class="cls-4" d="M85.6,187.1s6.06,12.24,26.5,16.47L78,228.26S76.52,195.56,85.6,187.1Z" transform="translate(-7.87 -13.29)"/><path class="cls-4" d="M98.23,235.23h47.25s-.42-18.27-4.35-24.38A60.12,60.12,0,0,0,131.7,209S105.16,224.41,98.23,235.23Z" transform="translate(-7.87 -13.29)"/><path class="cls-7" d="M135.15,209s-19.84,13.37-33.21,26.2H78.13l-.14-7s22.69-18.13,34.11-24.69C112.1,203.57,130.7,208.23,135.15,209Z" transform="translate(-7.87 -13.29)"/><path class="cls-5" d="M75.08,235.23s.22-34.36,9-49.81c2.86.12,3.41,6.14,3.41,6.14L93,195.78s-7.69.88-5.64,39.45Z" transform="translate(-7.87 -13.29)"/><path class="cls-5" d="M141.13,235.23h14.75s-1.39-20.72-4.32-21.58c-2.28-.86-12.85-2.8-12.85-2.8S141.67,226.58,141.13,235.23Z" transform="translate(-7.87 -13.29)"/><path class="cls-7" d="M90.79,196.28l-10.37,3.14L88,207.68l-10,6,7.84,7-9.36,7.61,10.33,7S85.69,208.2,90.79,196.28Z" transform="translate(-7.87 -13.29)"/><path class="cls-7" d="M138.27,209.6s3.36,14.55,2.92,24.33a109.46,109.46,0,0,0,13.41-7.45L142,220.36l9.53-6.71S139.66,209.63,138.27,209.6Z" transform="translate(-7.87 -13.29)"/><path class="cls-5" d="M135.15,209s-21.12,12.24-33.21,26.2H96.29s17.84-21.07,33.72-27.15Z" transform="translate(-7.87 -13.29)"/><path class="cls-5" d="M117.34,205.19l-5.24-1.62S91,216.5,87.11,221l0,6.12S101.19,211.76,117.34,205.19Z" transform="translate(-7.87 -13.29)"/><path class="cls-9" d="M94.81,82.49s-3.53,1.61-2.56,6.88c.64,3.43,2.26,19.27,3.17,29.58" transform="translate(-7.87 -13.29)"/><path class="cls-9" d="M116.47,116.72c-2.1,1-7.64-.65-8.06-3.87-1.14-8.73,2.48-17.4,2.48-17.4a13.26,13.26,0,0,0-14.47.8" transform="translate(-7.87 -13.29)"/><path class="cls-9" d="M119.58,90.21l.41-5s9.52-5.36,16.89,3.84C134.08,88,125.8,84.42,119.58,90.21Z" transform="translate(-7.87 -13.29)"/><path class="cls-9" d="M110.89,90.21l-.08-5s-10.21-3.38-14.74,5C100.86,88.37,104.78,87.54,110.89,90.21Z" transform="translate(-7.87 -13.29)"/><path class="cls-9" d="M140.65,80.18s5.4,7.31,4.6,19.39S133.83,139,155.6,141s29.3-10.07,30-16.35-6.73-8.85-11.8-5-3.14,8.8.11,9.28c4.24.62,4.16-4.31,4.16-4.31" transform="translate(-7.87 -13.29)"/><path class="cls-9" d="M173.76,119.71s3.39-15.48-1-28.43a27.61,27.61,0,0,0-6.46-9.78" transform="translate(-7.87 -13.29)"/><path class="cls-9" d="M169.09,68.2l-1.26,13.44a217.17,217.17,0,0,0-74.2,1.1L89.3,69.48a154.1,154.1,0,0,1,43.12-6.65C156.89,62.53,169.09,68.2,169.09,68.2Z" transform="translate(-7.87 -13.29)"/><path class="cls-9" d="M120.35,114.58c3.71.1,5.68.56,9.58,2.74,4.43,2.51,8.71-1.92,8.71-1.92.94,8.46-8,5.51-8,5.51-2.87,3.36-7.44,1.58-8.57,1.08-3.51,3-7.56.48-7.56.48s-5.42,3.33-8.74-1.19c-1.46.49-9.34,4.4-13.61-3.47,0,0,6.74,4.52,16.8-3.25" transform="translate(-7.87 -13.29)"/><path class="cls-9" d="M111.83,128.89a5.18,5.18,0,0,1,7.18-.32" transform="translate(-7.87 -13.29)"/><path class="cls-9" d="M121.87,95.45s4.86-5.51,13.3,0" transform="translate(-7.87 -13.29)"/><ellipse class="cls-10" cx="120.18" cy="81.98" rx="2.55" ry="2.3"/><ellipse class="cls-10" cx="94.8" cy="83" rx="2.55" ry="2.3"/><path class="cls-9" d="M168.19,77.62s-20.62-3.53-38.26-3.53-37.64,4.37-37.64,4.37" transform="translate(-7.87 -13.29)"/><path class="cls-9" d="M90.7,69,81.06,41.32a26.88,26.88,0,0,1,14.36-7.25l2,8.42L102,39.25,98.86,23.68s15-17.37,42.6-4.85l4.27,9.68-2.66,10.73a25.3,25.3,0,0,1,12.25,3.25l10.93-8.42,9.19,20.83-3.93-1.26-4.22,13.85" transform="translate(-7.87 -13.29)"/><path class="cls-10" d="M96.07,121.85s.34,8.38-.65,11" transform="translate(-7.87 -13.29)"/><path class="cls-9" d="M149.92,139.65c-.08,11.68-14.62,16.11-21.87,21.18s-17.16,5.32-17.16,5.32,1.9-2.56,1.74-4.19c-.39-4-14-2.71-20.34-17.16-4.71-10.76,3.13-12,3.13-12s9.81,6.84,17.85-.49" transform="translate(-7.87 -13.29)"/><path class="cls-9" d="M115.42,127.33s6.81,16.59,27.28,3.48" transform="translate(-7.87 -13.29)"/><path class="cls-9" d="M69.73,182.83s-10.36,12.71-8.91,52.4" transform="translate(-7.87 -13.29)"/><path class="cls-9" d="M82,149.24s-9.72,3.63-14.23,7.5c0,0-6.46,12.95,18.27,22.08-6.28,16.94,19.06,24,50.83,30.75,34.87,5.8,36.72,27.14,36.72,27.14" transform="translate(-7.87 -13.29)"/><path class="cls-9" d="M38.58,145.53c1.82,7.8,3.18,14.65,2,20.62,0,0,8.53-5.23,27.22-9.41" transform="translate(-7.87 -13.29)"/><path class="cls-9" d="M35.68,132.81c-8.49,3-21,0-21,0s-6.29,9.93-5.81,13.34c1.44,2.43,13.42,1.92,20.06,1.38s11.72-2.11,11.36-3.92-2.63-10.13-4.64-10.8c0,0,11.16-7.2,13.74-11S52,110.52,46.84,108.5s-11.2,2-13.65,2.21c-2.79.29,1.29,5.14,5.36,5.23a8.05,8.05,0,0,0,3.14-.44" transform="translate(-7.87 -13.29)"/><path class="cls-9" d="M61.32,204s-38.16,2.64-45.89-8.47c-6.11-8.78-8.34-33.83-4.94-47.4" transform="translate(-7.87 -13.29)"/><path class="cls-9" d="M15.91,132.81s1.61-13.69,2.26-15.82,1.61-15.91,7.73-16.27,17.4-3.51,21.91,0,1.93,7.78,1.93,7.78" transform="translate(-7.87 -13.29)"/><path class="cls-9" d="M24.77,109.54s-.65,5.29,1,6.4c1.93,1.33,8.11,1.16,10.42-.44" transform="translate(-7.87 -13.29)"/><path class="cls-9" d="M184.48,149.24s30.19,8.7,46.21,51c11,28.94,10.06,36.51,10.06,36.51" transform="translate(-7.87 -13.29)"/><path class="cls-9" d="M93.75,187.58a44.36,44.36,0,0,0,25.26,8" transform="translate(-7.87 -13.29)"/><path class="cls-9" d="M90,179.83s9.08,6.38,16.44,7.27" transform="translate(-7.87 -13.29)"/><path class="cls-9" d="M148.15,119.11s-3.06,15.08,12.57,15.88" transform="translate(-7.87 -13.29)"/><path class="cls-9" d="M153.63,127.05s-2.25-3-1-8.1" transform="translate(-7.87 -13.29)"/><path class="cls-9" d="M160.72,80.58s8.2,9,8.37,18" transform="translate(-7.87 -13.29)"/><path class="cls-9" d="M156.37,80.58s5,6.77,5.64,9" transform="translate(-7.87 -13.29)"/><path class="cls-9" d="M87.25,128.09c4.88-1.51,0-9.14-5.24-6.24-6.9,4.48-3.71,13,2.64,16a4.5,4.5,0,0,0,6.56-1.52" transform="translate(-7.87 -13.29)"/><path class="cls-9" d="M88.71,123.65s6-12.65,4.36-27.36" transform="translate(-7.87 -13.29)"/><path class="cls-9" d="M91,140.93s-12.89,5.82-6.37,11.38c3.59,3.05,14.42,9.35,27.45,11.8" transform="translate(-7.87 -13.29)"/><path class="cls-9" d="M121.43,164.11s24.33,2.21,44.82-4.31c16.86-5.56,18.23-10.56,18.23-10.56.56-2.49.05-4.42-5.48-6.6-1.75-.69-8.38-2.79-8.38-2.79" transform="translate(-7.87 -13.29)"/><polyline class="cls-9" points="89.54 29.2 87.78 30.52 87.03 39.23 90.98 52.52"/><path class="cls-9" d="M155.32,42.49A11,11,0,0,1,158,44.62l1.67,6.4-6.52,12.29" transform="translate(-7.87 -13.29)"/><line class="cls-9" x1="94.14" y1="25.95" x2="99.66" y2="51.09"/><line class="cls-9" x1="135.2" y1="25.95" x2="129.17" y2="48.41"/><path class="cls-9" d="M75.3,164s-3.33-3-2.21-5.92" transform="translate(-7.87 -13.29)"/><path class="cls-9" d="M181.57,152.52s14.42,7.12,18.29,11.95" transform="translate(-7.87 -13.29)"/><path class="cls-9" d="M187.62,162.43s9,3.57,12.24,11" transform="translate(-7.87 -13.29)"/><path class="cls-9" d="M87.37,235.23S84,219.4,91.73,195.54l-12.32,3.7,8.5,8.72-11.32,5.69,10.21,7-11.62,7.61,11.53,7" transform="translate(-7.87 -13.29)"/><path class="cls-9" d="M75.08,235.23A144.37,144.37,0,0,1,84,184.39" transform="translate(-7.87 -13.29)"/><path class="cls-9" d="M138.27,209.81s3.38,14.47,2.86,25.42" transform="translate(-7.87 -13.29)"/><path class="cls-9" d="M155.88,236.07c.51-10.95-4.32-22.42-4.32-22.42l-10.43,7,13.71,5.83-13.71,8.75" transform="translate(-7.87 -13.29)"/><path class="cls-9" d="M87.76,220.65s13.29-11.05,25.08-16.86" transform="translate(-7.87 -13.29)"/><path class="cls-9" d="M134.58,209.6s-24.28,14.14-32.64,25.63" transform="translate(-7.87 -13.29)"/><path class="cls-9" d="M117.09,205.19S95,216.94,86.65,227.13" transform="translate(-7.87 -13.29)"/><path class="cls-9" d="M96.29,235.23S110.86,218,130,208.08" transform="translate(-7.87 -13.29)"/><circle class="cls-11" cx="109.47" cy="165.53" r="6.48"/><ellipse class="cls-11" cx="138.57" cy="175.04" rx="2.15" ry="3.77" transform="translate(-48.3 28.33) rotate(-14.94)"/><ellipse class="cls-11" cx="154.21" cy="167.41" rx="2.15" ry="3.77" transform="translate(-71.44 87.93) rotate(-30.44)"/><path class="cls-12" d="M135.64,178.5c.51-.24.83-1.25.61-2.58s-.86-2.34-1.42-2.25c0,0-5.8-1.11-10.45,1.75-.48.29-.83,1.25-.61,2.58s.86,2.34,1.42,2.25A18.07,18.07,0,0,0,135.64,178.5Z" transform="translate(-7.87 -13.29)"/><path class="cls-12" d="M152.43,171.44c.42-.37.46-1.42-.11-2.65s-1.46-2-2-1.78c0,0-5.88.49-9.59,4.5-.39.41-.47,1.43.11,2.65s1.46,2,2,1.78A18.05,18.05,0,0,0,152.43,171.44Z" transform="translate(-7.87 -13.29)"/><path class="cls-12" d="M165,160.39a15.34,15.34,0,0,1-5.53,7c-.33.46-1.49.19-2.59-.6s-1.52-1.71-1.39-2.26a11.93,11.93,0,0,1,.73-2.11Z" transform="translate(-7.87 -13.29)"/><ellipse class="cls-11" cx="97.89" cy="169.69" rx="3.77" ry="2.15" transform="translate(-104.89 136.72) rotate(-54.26)"/><path class="cls-12" d="M99.32,174.32c-.39-.42-.32-1.47.38-2.63s1.65-1.87,2.14-1.57c0,0,5.8,1.08,9.09,5.44.34.45.31,1.47-.38,2.63s-1.66,1.86-2.14,1.57A18.05,18.05,0,0,1,99.32,174.32Z" transform="translate(-7.87 -13.29)"/><path class="cls-12" d="M87.79,159.81c-.15-.54.4-1.44,1.56-2.14s2.33-.88,2.63-.39c0,0,4.62,3.67,5.48,9.06.09.56-.4,1.45-1.56,2.15s-2.34.87-2.63.39A18.12,18.12,0,0,1,87.79,159.81Z" transform="translate(-7.87 -13.29)"/><path class="cls-11" d="M86.61,153.79c-.94.76-1.85,2.5-1.56,3.25.44,1.11,2.36,1.39,4.3.63a6.1,6.1,0,0,0,1.7-1Z" transform="translate(-7.87 -13.29)"/><circle class="cls-11" cx="73.12" cy="160.18" r="11.04"/><path class="cls-13" d="M84.54,173.16a3.23,3.23,0,0,0,1.08-2.56,3.35,3.35,0,0,0-2.48-3.3,7.84,7.84,0,0,0-2.67-.39H77.09a.71.71,0,0,0-.71.71v11.66a.71.71,0,0,0,.71.71h3.83a6.89,6.89,0,0,0,2.69-.47A3.67,3.67,0,0,0,86.05,176,3.15,3.15,0,0,0,84.54,173.16Zm-5.13-3.46h1c2.12,0,2.12.73,2.12,1.05s0,1.1-2.21,1.1h-.89Zm1.32,7.48H79.41V174.6h1a5,5,0,0,1,1.6.25c.82.29.93.67.93,1.05S82.91,177.18,80.73,177.18Z" transform="translate(-7.87 -13.29)"/><polygon class="cls-14" points="95.62 57.73 93.1 62.72 89.16 58.99 91.68 54.01 95.62 57.73"/><polygon class="cls-11" points="155.11 58.91 151.17 62.5 149.24 56.83 153.18 53.24 155.11 58.91"/><polygon class="cls-14" points="138.94 55.62 134.42 60.12 130.96 54.76 135.48 50.27 138.94 55.62"/><polygon class="cls-11" points="115.82 55.53 111.56 61.32 106.77 55.96 111.03 50.17 115.82 55.53"/></g></g></g></svg>